<?xml version="1.0" encoding="iso-8859-1"?>
<!-- Generator: Adobe Illustrator 19.0.0, SVG Export Plug-In . SVG Version: 6.00 Build 0)  -->
<svg version="1.1" id="Capa_1" xmlns="http://www.w3.org/2000/svg" xmlns:xlink="http://www.w3.org/1999/xlink" x="0px" y="0px"
	 viewBox="0 0 96.3 96.3" style="enable-background:new 0 0 96.3 96.3;" xml:space="preserve">
<g>
	<g>
		<path d="M44.516,50.7c-2.2,6.6-1,13.3-1.4,20c0,0.3,0.7,0.8,1.1,0.9c1,0.3,1.8-0.1,2.4-0.6c2-1.9,2.9-4.1,3.1-6.4
			c0.6-5.5,1.4-11.1,0.8-16.6c0.1-0.7,0.2-1.4,0.2-2.1c0.2-2.8,0.3-5.6,0.2-8.3c2,2.1,4,3.9,6.4,5.5c1,0.7,2.3,0.8,3.5-0.6
			c1.1-1.2,1.3-2.6,0.6-3.7c-1.3-1.8-2.6-3.6-4.2-5.2c-2.6-2.5-5.4-4.7-8.1-7.1l0,0l0,0c-0.5-1.1-1.8-1.5-2.9-1l-1.1,0.6
			c-5.9,3-9.5,8.4-14.3,12.5c-0.2,0.2-0.1,1,0.2,1.4c0.5,0.9,1.3,1.2,2.1,1.2c2.7,0.2,4.9-0.8,6.6-2.2c1.4-1.2,2.9-2.3,4.3-3.4
			c-0.2,1.3-0.3,2.6-0.3,3.9C43.816,43.3,44.216,47,44.516,50.7z"/>
		<path d="M92.316,52.9c-1.7,6.3-4.6,12.6-8.9,18.3c-0.5,0.7-1.1,1.4-1.7,2.1l-0.9,1l-0.4,0.5l-0.5,0.5c-0.6,0.6-1.3,1.3-1.9,1.9
			l-0.5,0.5l-0.6,0.4l-1.1,0.9c-1.3,1.2-2.9,2.2-4.4,3.3c-0.7,0.5-1.6,0.9-2.4,1.4c-0.8,0.4-1.6,1-2.4,1.3c-3.9,2-8.2,3.2-12.6,3.9
			c-1.1,0.1-2.2,0.4-3.3,0.4l-1.6,0.1h-0.8h-0.4h-0.2h-0.1l0,0l-3.4-0.2l-0.9-0.1c-0.3,0-0.5-0.1-0.8-0.1l-1.6-0.3l-1.6-0.3
			c-0.5-0.1-1.1-0.3-1.6-0.4l-1.6-0.4c-0.5-0.1-1.1-0.3-1.6-0.5l-3-1.2c-1-0.5-2-1-2.9-1.4c-3.8-2.1-7.3-4.7-10.4-7.8
			c-3-3.1-5.5-6.8-7.4-10.6l-0.7-1.5l-0.4-0.7l-0.3-0.8l-1.1-3.1l-0.8-3.1c-0.1-0.3-0.1-0.5-0.2-0.8l-0.1-0.8l-0.2-1.6l-0.3-1.6
			l-0.1-1.6l-0.1-1.6v-0.8V48v-0.2v-0.4l0.2-3.5c0.1-1.1,0.3-2.1,0.4-3.1c0.7-4.2,2.1-8.4,4.1-12.3c2.2-3.7,4.9-7.1,8-10.1
			c9.9-9.4,24.6-13.2,37.8-9.8l2.5,0.6l2.4,0.9l1.2,0.4c0.4,0.2,0.8,0.4,1.2,0.5l2.3,1.1c2.9,1.7,5.8,3.5,8.3,5.8
			c1.3,1.1,2.4,2.4,3.6,3.6c0.6,0.6,1.1,1.3,1.6,2s1.1,1.3,1.5,2c0.9,1.4,1.9,2.8,2.6,4.4c0.4,0.8,0.8,1.5,1.2,2.3l0.9,2.4
			c2.9,7.2,3.3,14,5.2,13.4c0.8-0.3,1.4-1.9,1.8-4.7c0-1.4,0-3-0.1-4.9c-0.2-0.9-0.3-1.9-0.5-2.9c-0.1-0.5-0.2-1-0.4-1.6
			c-0.2-0.5-0.4-1.1-0.5-1.6c-1.2-3.9-3.2-7.6-5.4-11.1c-1.2-1.7-2.3-3.4-3.8-4.9l-1-1.2c-0.3-0.4-0.7-0.8-1.1-1.1l-2.3-2.1
			c-3.2-2.7-6.6-5.1-10.4-6.9c-1.8-1-3.8-1.6-5.8-2.4c-1-0.4-2-0.5-3-0.8s-2-0.6-3.1-0.7l-2.6-0.4l-1.3-0.2l-0.9-0.4l-2.3-0.1h-0.6
			h-0.3h-0.2h-0.2l0,0l0,0h-0.1l-1.2,0.1c-1.7,0.1-3.4,0.1-5,0.4c-1.7,0.3-3.3,0.5-4.9,1c-6.5,1.6-12.6,4.6-17.9,8.8
			c-5.2,4.2-9.6,9.4-12.6,15.3l-1.1,2.2c-0.3,0.8-0.7,1.5-1,2.3l-0.7,2.4l-0.4,1.2c-0.1,0.4-0.2,0.8-0.3,1.2l-0.6,2.4
			c-0.1,0.4-0.2,0.8-0.3,1.2l-0.2,1.3c-0.2,1.7-0.5,3.4-0.5,4.9c-0.7,5.8-0.2,12,1.5,17.8s4.5,11.3,8.4,16.1
			c3.8,4.8,8.6,8.8,14,11.8l4.2,2c1.4,0.6,2.9,1.1,4.3,1.6c1.5,0.4,3,0.8,4.5,1.2c1.5,0.3,3.2,0.5,4.7,0.8l0.6,0.1h0.5l1.1,0.1
			l2.1,0.1h0.5h0.3h0.3h0.1h0.1l1.2-0.1l2.3-0.1l1.2-0.1c0.4,0,0.8-0.1,1.2-0.2l2.3-0.4c1.5-0.2,3-0.6,4.5-1
			c6-1.6,11.6-4.5,16.5-8.2c4.9-3.8,9.1-8.4,12.2-13.7c0.4-0.7,0.8-1.3,1.2-2l1-2.1c0.3-0.7,0.7-1.4,1-2.1l0.8-2.2
			c0.3-0.7,0.5-1.4,0.8-2.2l0.6-2.2l0.6-2.2l0.4-2.4c0.5-2.4-0.2-5.5-0.6-6.5C94.016,46.6,93.216,49.1,92.316,52.9z"/>
	</g>
</g>
<g>
</g>
<g>
</g>
<g>
</g>
<g>
</g>
<g>
</g>
<g>
</g>
<g>
</g>
<g>
</g>
<g>
</g>
<g>
</g>
<g>
</g>
<g>
</g>
<g>
</g>
<g>
</g>
<g>
</g>
</svg>
